<!-- Generator: Adobe Illustrator 19.0.0, SVG Export Plug-In  -->
<svg version="1.1"
	 xmlns="http://www.w3.org/2000/svg" xmlns:xlink="http://www.w3.org/1999/xlink" xmlns:a="http://ns.adobe.com/AdobeSVGViewerExtensions/3.0/"
	 x="0px" y="0px" width="110.1px" height="78.8px" viewBox="0 0 110.1 78.8" style="enable-background:new 0 0 110.1 78.8;"
	 xml:space="preserve">
<style type="text/css">
	.st0{clip-path:url(#SVGID_2_);}
	.st1{fill:#EFAB1F;}
	.st2{fill:#D48B29;}
	.st3{fill:#EFC81E;}
	.st4{fill:#CF872C;}
	.st5{fill:#C9832A;}
	.st6{fill:#252014;}
	.st7{fill:#1A1610;}
	.st8{fill:#EBBF61;}
	.st9{fill:#E4B04C;}
	.st10{fill:#DFB728;}
	.st11{fill:#9D6E35;}
	.st12{fill:#D4B564;}
	.st13{fill:#DD9F39;}
	.st14{fill:#ECA920;}
	.st15{fill:#E2A338;}
	.st16{fill:#F3B83A;}
	.st17{fill:#F3B633;}
	.st18{fill:#EED56A;}
	.st19{fill:#271F15;}
	.st20{fill:#231D14;}
	.st21{fill:#2F1F11;}
	.st22{fill:#1B1814;}
	.st23{fill:#010101;}
	.st24{fill:#552B33;}
	.st25{fill:#3A1E24;}
	.st26{fill:#371B20;}
	.st27{fill:#272625;}
	.st28{fill:#040404;}
	.st29{fill:#2B2926;}
	.st30{fill:#161616;}
	.st31{clip-path:url(#SVGID_4_);}
</style>
<defs>
</defs>
<g>
	<g>
		<defs>
			<path id="SVGID_1_" d="M18.4,69.8c0,0,43.3-1.4,48-1.4c1.9,0,1.4-24.7,1.4-24.7l5-18.3l37.3-15.7L104.8,0L49.5,8.7
				C49.5,8.7,14,53.5,18.4,69.8z"/>
		</defs>
		<clipPath id="SVGID_2_">
			<use xlink:href="#SVGID_1_"  style="overflow:visible;"/>
		</clipPath>
		<g class="st0">
			<path class="st1" d="M22.9,75.4c0.2-9.4,2.7-17.9,8.8-25.1c0.1-0.2,0.3-0.3,0.5-0.5c0.6-0.3,0.9-0.8,1.3-1.3
				c0.8-0.8,1.7-1.4,2.3-2.4c0.4-0.4,0.8-0.7,1.2-1.1c0.3,0,0.6-0.2,0.8,0.1c0.7,1.2,2,1.8,3,2.7c3.2,2.8,6.1,5.9,9.3,8.8
				c1.8,1.7,3.8,2.8,6.2,3.2c2.7,0.4,2.9,0.9,1.3,3.2c-1,1.4-2.4,2.3-3.2,3.8c-2.5,2.2-5,4.1-8.5,4.8c-2.6,0.5-5.1,1.4-7.7,1.8
				c-2.6,0.4-5.1,1-7.7,0.9c-1.4,0-2.7,0.3-4.1,0.5c-0.6,0.1-1.1,0.4-1.4,1c-0.1,0.2-0.3,0.3-0.5,0.5C23.7,76.5,23.1,76.3,22.9,75.4
				z"/>
			<path class="st2" d="M24.7,75.8c0.2-1.1,1-1.4,1.9-1.5c2.4-0.2,4.8-0.5,7.3-0.5c1.2,0,2.3-0.5,3.5-0.7c1.6-0.3,3.3-0.5,4.9-0.8
				c0.8-0.2,1.4-0.6,2.2-0.8c2-0.5,4.1-0.6,5.8-1.8c1.3-1,2.7-1.9,3.9-3.2c1.9-1.9,3.7-3.8,5.1-6.3c0.7-1.2,1-2.5,1-3.9
				C60,51,59.6,45.7,59.4,40.4c-0.2-4.9-0.5-9.7-0.8-14.6c-0.1-1.4-0.1-2.7-0.3-4.1c0-0.3,0-0.6,0-0.9c0.1-0.5,0.1-1,0.5-1.4
				c1.7,0.7,2.3,1.9,2.4,3.8c0.2,4.8,0.7,9.6,1,14.4c0.5,2.3,0.4,4.6,0.8,7c0.4,3.1,0.8,6.2,1.3,9.3c0.3,2,0.5,4,0.8,6
				c0.2,0.3,0.1,0.8,0.3,1.1c0.2,2.9,0.6,5.9,0.1,8.8c-0.2,0.4-0.5,0.6-0.8,0.9c-1.7,1.1-3.6,1.4-5.5,1.7c-3.3,0.7-6.6,1.1-9.9,2
				c-2.8,0.6-5.6,0.8-8.4,0.9c-4.6,0.1-9.2,0.7-13.9,0.8C26.2,76.2,25.4,76.4,24.7,75.8z"/>
			<path class="st3" d="M58.6,20.8c0,0.3,0,0.5,0,0.8c-0.1,1.5,0.2,3.1,0.1,4.6c0,0.4,0.1,0.8-0.1,1.2c-1.1,2.5-1.8,5.2-3.6,7.3
				c-2.3,2.7-5.1,4.7-8.4,5.8c-2.8,0.9-5.2,2.3-7.7,3.9c-0.4,0.3-0.8,0.8-1.4,0.6c-0.2,0.1-0.4,0.3-0.6,0c3.3-3,7-5.4,10.7-7.9
				c2.6-2,5-4.3,7.2-6.9c1.6-1.6,2-3.6,1.9-5.9c-0.1-1.6-0.4-3.2,0.2-4.7c0.1-0.4,0.2-0.9,0.7-1.1c0.3,0.2,0.6,0.4,0.9,0.7
				C58.7,19.8,58.7,20.3,58.6,20.8z"/>
			<path class="st4" d="M24.7,75.8c8.2-0.4,16.4-0.8,24.5-1.3c-1.8,0.8-3.8,1.1-5.8,1.4c-6.3,0.8-12.7,1-19,1.2
				c-0.2,0-0.3-0.1-0.5-0.1c0.1-0.4,0.5-0.5,0.5-0.9C24.5,76,24.6,75.9,24.7,75.8z"/>
			<path class="st5" d="M64.9,60.2c-0.6-0.7-0.5-1.7-0.6-2.6c-0.3-3.3-1.2-6.6-1.5-9.9c-0.3-3.4-0.5-6.7-0.7-10.1
				c0.5,1.8,0.4,3.7,0.8,5.6c0.8,4.7,1.6,9.5,2.1,14.3c0.1,0.5,0.1,1.1,0.1,1.6C64.9,59.5,65.2,59.9,64.9,60.2z"/>
			<path class="st6" d="M56.4,24.2c-0.3-2.1,0-4.1,0.5-6.1c0.4,0,0.6,0.2,0.8,0.5c-0.2,2.3-0.2,3.5-0.1,5.6c0.1,2.4-0.8,4.8-2.5,6.5
				c-0.3,0.2-0.5,0-0.7-0.2c-0.1-0.3,0-0.6,0.1-0.8C55.8,28.1,56.2,26.2,56.4,24.2z"/>
			<path class="st7" d="M55.6,28.8c0.2,0.1-0.7,1.8-0.5,1.9c-2.3,2.4-4.3,5.1-7.4,6.5c0.2-0.3,0.1-0.6-0.1-0.8
				c0.3-0.2,0.5-0.4,0.8-0.6c0.6-0.8,1.5-1.2,2.5-2.3C51.6,32.4,54.2,29.3,55.6,28.8z"/>
			<path class="st8" d="M59.1,18.2c0.3-0.6,0.5-1.4,1.4-1.4c0,0.7,0.3,1.5,0,2.4C60,18.9,59.6,18.6,59.1,18.2z"/>
			<path class="st9" d="M24.5,76.1c1,1.1-0.2,0.7-0.5,0.9c-1.6,0.3-1-0.9-1-1.6C23.3,75.9,23.8,76.1,24.5,76.1z"/>
			<path class="st10" d="M35.7,46.2c-0.2,1.3-1.3,1.8-2.2,2.5c-0.2-0.1-0.2-0.2,0-0.3C34.3,47.6,35,46.9,35.7,46.2z"/>
			<path class="st11" d="M62.8,28.2c0.4,1,0.5,2,0.2,3C63,30.3,62.9,29.3,62.8,28.2z"/>
			<path class="st12" d="M33.5,48.4c0,0.1,0,0.2,0,0.3c-0.3,0.5-0.7,1.1-1.4,1.2C32.6,49.3,33,48.8,33.5,48.4z"/>
			<path class="st13" d="M64.9,60.2c0-0.4-0.1-0.8,0.2-1.1c0,0.6,0.1,1.3,0.1,1.9C65,60.8,65,60.5,64.9,60.2z"/>
			<path class="st14" d="M58.6,20.8c0-0.5,0-1-0.1-1.5c0.1,0,0.2,0.1,0.2,0.1C58.7,19.9,59,20.4,58.6,20.8z"/>
			<path class="st15" d="M64.6,70.8c0.1-0.4,0.4-0.7,0.8-0.9C65.5,70.5,65.1,70.7,64.6,70.8z"/>
			<path class="st14" d="M37.5,45.1c2.2-1.9,4.8-3.5,7.5-4.4c2-0.7,3.9-1.5,5.7-2.7c3.1-2,5.2-4.8,6.5-8.3c0.9-2.5,1.4-4.8,1.1-7.4
				c0-0.2,0.1-0.4,0.2-0.6c0.2,3.1,0.4,6.2,0.6,9.3c0.2,2.4,0.1,4.9,0.4,7.3c0.4,3.4,0.2,6.8,0.6,10.2c0.3,2.4,0.1,5,0.4,7.4
				c0.5,3.9-2.3,6-4.1,8.5c-0.6,0.8-1.3,1.7-2.3,2.1c1-1.8,2.8-2.9,3.8-4.6c0.5-0.8,0.5-1.1-0.4-1.3c-0.8-0.2-1.5-0.4-2.3-0.5
				c-1.8-0.3-3.3-1.1-4.7-2.4c-3.3-3.1-6.6-6.2-9.9-9.3c-0.8-0.7-1.6-1.3-2.4-1.9C37.9,46.1,37.5,45.7,37.5,45.1z"/>
			<path class="st16" d="M50.6,60.9c-0.5-0.1-0.8-0.3-0.7-0.6c0.1-0.4,0.4-0.1,0.6,0.1C50.5,60.5,50.5,60.7,50.6,60.9z"/>
			<path class="st17" d="M46.7,66c-0.1-0.1-0.2-0.1-0.2-0.2c-0.1-0.2,0-0.4,0.2-0.4c0.1,0,0.2,0.1,0.3,0.2
				C47.1,65.8,47,65.9,46.7,66z"/>
			<path class="st18" d="M50.5,36.5c-0.1,0.1-0.2,0.3-0.3,0.3c-0.1,0-0.3,0-0.3-0.1c-0.1-0.2,0-0.3,0.2-0.3
				C50.2,36.3,50.3,36.4,50.5,36.5z"/>
			<g>
				<path class="st19" d="M40.4,71.8c-0.6,0.6-1.2,0.8-2,0.5c-0.5-0.7-0.3-1.4,0.2-2c0.4-0.5,0.9-0.5,1.5-0.3
					C40.6,70.5,41,71,40.4,71.8"/>
				<path class="st20" d="M27.9,71.5c0.5-0.5,1-0.7,1.7-0.5c0.5,0.7,0.8,1.5-0.3,1.8C28.3,73.1,28,72.4,27.9,71.5"/>
				<path class="st21" d="M57.4,67.9c1.3-0.8,2-0.5,2.1,1C58.3,69.6,57.4,69.7,57.4,67.9"/>
				<path class="st22" d="M47.5,70.4c-0.1-1.9,0.8-1.7,2-1c0,0.2,0,0.3,0.1,0.4C49.2,71.1,48.5,71.1,47.5,70.4"/>
			</g>
			<path class="st23" d="M62.6,19.6c-0.1-0.7-0.1-1.5-0.2-2.2c-0.6-1.3-0.8-1.4-2-0.9c-0.4,0.4-2.6,0.6-2.9,0.6
				c-0.1-0.1-0.8,1.3-0.5,1.5c0.4,0.3,1.2,0.9,1.6,1.2c0.1,0.1,0.2,0.2,0.4,0.2c1.3,0.8,1.8,1.9,1.8,3.4c0,0.9,0.1,1.8,0.2,2.7
				c0.3,3.9,0.4,7.8,0.9,11.6c0.2,0.6,0.3,1.1,0.3,1.7c0,2.9,0.8,5.8,1.2,8.7c0.5,3.6,1.2,7.2,1.5,10.9c0,0.7,0.1,1.3,0.1,2
				c0.2,2.8,0.4,5.6,0.2,8.4c0,0.6-0.3,0.9-0.8,1.1c-1.5,0.8-3.1,1.1-4.7,1.5c-3.5,0.7-7.6,1.3-11.2,2c-5.3,1.1-8.7,1.3-12.8,1.7
				c-3.4,0.3-5.8,0.5-9.3,0.8c-0.7,0.1-1.3,0.3-2,0.1c-0.8,0-1.2-0.5-1.1-1.4c0.1-1.1,0-2.2,0.2-3.3c1.1-8.2,3.3-15.8,9-21.8
				c0.4-0.5,0.9-1.1,1.3-1.6c0.8-0.7,1.4-1.5,2.2-2.1c0.5-0.3,1-0.8,1.4-1.2c1.4-1.3,3-2.4,4.5-3.6c2-1.5,4.2-2.6,6.1-4.3
				c0.2-0.4,2.9-2.1,2.4-2.4c-1.5,0.1-5.2,2.6-6.4,3.2c-1.7,1-3.3,2.3-5,3.4c-1.4,1-2.7,2-3.7,3.5c-1.1,0.8-2,2-3,2.9
				c-3.5,3.1-6,6.8-7.7,11.2c-0.6,1.1-0.7,2.6-1.3,3.7c-1.1,3.2-1.9,6.4-1.9,9.8c0,1.8-0.4,3.7,0.5,5.4c1.1,1.1,2.4,0.3,3.6,0.5
				c4.7-0.3,14.9-1.1,18.9-1.8c5.7-0.9,13.4-2.2,15.7-2.8c1.9-0.5,4.7-0.4,6.1-2c0.2-0.3,0.5-1,0.7-1.3c0.4-0.5,0-1.1,0-1.7
				c0.2-3.5-0.4-12.8-0.4-13.1c-0.6-4-0.9-8-1.7-12c-0.1-0.3-1.2-8.8-1.3-12.8c-0.1-1-0.1-2-0.2-3c-0.1-1.7-0.2-3.5-0.4-5.2
				c0-0.1,0-0.2,0-0.3C62.9,22.7,63,21.1,62.6,19.6z"/>
			<path class="st23" d="M57.3,18.9c0,0,2.5-1.1,5.5-1.9c6.7-1.8,37.7-8.4,38.8-9.1c1.7-1,3-0.1,3.9-1.6s-3.3-2.2-6.1-1.8
				S62.7,10.2,62,10.2s-0.7-0.6-2.8-0.3c-2.1,0.3-4.9,1-5,2C54,12.9,53.8,20.3,57.3,18.9z"/>
			<path class="st24" d="M61,16c-0.9,0.2-0.9-0.7-1.2-1.2c-0.3-0.5-0.4-1.1,0.4-1.3c0.7-0.1,1.3,0.3,1.5,1
				C61.8,15.2,61.5,15.6,61,16"/>
			<path class="st25" d="M55,13.7c2.3,0.1,3,1.2,2.2,3.6C55.1,16.9,55.5,15,55,13.7"/>
			<path class="st14" d="M61,12.9c-0.8-0.2-1.1,0.4-0.6-0.4l39.4-6.7l1.6-0.3l1.8,0.8l-2.5,0.6l-37.3,8.3
				C63.4,15.1,62.7,13.4,61,12.9z"/>
			<path class="st26" d="M59.2,14.9c-0.2,0.6-0.3,1.1-0.5,1.2c-0.4,0.1-0.9-0.3-1-1.4c0-0.4,0.3-0.8,0.5-0.8
				C58.4,13.8,58.8,14.4,59.2,14.9"/>
			<path class="st27" d="M23.3,70c0.2-0.4-0.4-0.7,0.4-1c0.5,0,1,0,1.6-0.2c5.1-1.3,10.3-2.2,15.8-2.7c2,0,4.1-0.5,6.1-0.6
				c4.7-0.6,9.4-1.2,14-1.7c1.4-0.2,2.7-0.3,1.1,0.5c-3.6,0.6-7.2,1-10.8,1.4c-4,0.3-8,1.1-11.9,1.2c-1.6,0.1-3.1,0.3-4.7,0.6
				C30.6,67.9,27.1,69.1,23.3,70z"/>
		</g>
	</g>
	<g>
		<path class="st28" d="M25.6,69.8c-3.7,0.3-9.4,0.5-15.1,1.3c-2.9,0-4.9,0.5-8.1,1c-0.7,0.1-1.6,0.3-2.4-0.7
			c7.1-2.6,14.2-1.5,21.6-2.6c0.7-0.2,1.4-0.1,2.2-0.1c1.1,0,2.1,0,3.2,0c0.6,0,3,0.1,3,0.7C29.3,70,26.5,69.9,25.6,69.8z"/>
		<path class="st27" d="M72.1,69.9c4.8,0,0.9-0.4,0.3-0.8c-0.4,0-0.7,0.2-1.1,0.1c-3.5-1.1-7.2-1.6-10.9-1.1
			c-1.4,0.4-2.8-0.1-4.2,0.3c-3.2,0-6.4,0-9.7,0.1c-0.9,0-1.9,0.1-0.7,1.1c2.5,0.2,4.9,0.2,7.4,0c2.7-0.3,5.5,0.2,8.2-0.4
			c1.1-0.2,2.1-0.2,3.2,0C67.8,69.4,69.9,69.5,72.1,69.9z"/>
		<path class="st29" d="M35.6,68.6c1.8,0,3.6-0.1,5.4-0.1c0.6-0.4,4.2-0.2,4.9,0.2c1.5,1.4,0.5,0.2,2.2,0.6c-1.9,0.6-2.2,0.4-6,0.4
			c-0.2,0.2-3.5,0.1-3.7,0c-3.3,0-3.6,0-6.9,0c0.2-0.9,1-0.6,1.6-0.6C34,68.8,34.9,69.1,35.6,68.6z"/>
		<path class="st30" d="M35.6,68.6c-0.2,0.9-1.1,0.6-1.8,0.6c-0.8,0.1-1.6-0.2-2.3,0.3c-0.6,0-1.1,0.1-1.7,0.1
			c-0.7,0.1-1.4,0.3-2.1-0.1c-0.3-1-1.3-0.6-2-0.6c-0.7-0.1-1.5,0-2.2-0.1c0-0.1,0.1-0.2,0.3-0.3c1,0,2.1-0.1,3.1-0.1
			C29.9,68.5,32.7,68.5,35.6,68.6z"/>
	</g>
</g>
</svg>
