<!-- Generator: Adobe Illustrator 19.0.0, SVG Export Plug-In  -->
<svg version="1.1"
	 xmlns="http://www.w3.org/2000/svg" xmlns:xlink="http://www.w3.org/1999/xlink" xmlns:a="http://ns.adobe.com/AdobeSVGViewerExtensions/3.0/"
	 x="0px" y="0px" width="134px" height="68.5px" viewBox="0 0 134 68.5" style="enable-background:new 0 0 134 68.5;"
	 xml:space="preserve">
<style type="text/css">
	.st0{clip-path:url(#SVGID_2_);}
	.st1{fill:#EFAB1F;}
	.st2{fill:#D48B29;}
	.st3{fill:#EFC81E;}
	.st4{fill:#CF872C;}
	.st5{fill:#C9832A;}
	.st6{fill:#252014;}
	.st7{fill:#1A1610;}
	.st8{fill:#EBBF61;}
	.st9{fill:#E4B04C;}
	.st10{fill:#DFB728;}
	.st11{fill:#9D6E35;}
	.st12{fill:#D4B564;}
	.st13{fill:#DD9F39;}
	.st14{fill:#ECA920;}
	.st15{fill:#E2A338;}
	.st16{fill:#F3B83A;}
	.st17{fill:#F3B633;}
	.st18{fill:#EED56A;}
	.st19{fill:#271F15;}
	.st20{fill:#231D14;}
	.st21{fill:#2F1F11;}
	.st22{fill:#1B1814;}
	.st23{fill:#010101;}
	.st24{fill:#552B33;}
	.st25{fill:#3A1E24;}
	.st26{fill:#371B20;}
	.st27{fill:#272625;}
	.st28{fill:#040404;}
	.st29{fill:#2B2926;}
	.st30{fill:#161616;}
	.st31{clip-path:url(#SVGID_4_);}
</style>
<defs>
</defs>
<g>
	<g>
		<defs>
			<path id="SVGID_1_" d="M99.5,24.4c0,0,16,11.1,32.1,5.1S77.3,0,77.3,0S60.3,13.1,55.4,15s-40.8,7.4-42.9,8.9S0.8,34.2,0.2,40.2
				s-1,11.1,8.8,17.4s31.1,3.2,35,3.5c9.7,0.7,27,1.7,27,1.7L99.5,24.4z"/>
		</defs>
		<clipPath id="SVGID_2_">
			<use xlink:href="#SVGID_1_"  style="overflow:visible;"/>
		</clipPath>
		<g class="st0">
			<path class="st1" d="M9.7,46.3c5.6-8.6,12.9-15,22.6-18.1c0.2-0.1,0.5-0.1,0.7-0.1c0.7,0,1.3-0.3,1.9-0.4
				c1.2-0.2,2.4-0.3,3.5-0.9c0.6-0.1,1.2-0.2,1.8-0.3c0.3,0.1,0.7,0.1,0.7,0.6c0,1.6,0.8,2.8,1.2,4.2c1.3,4.4,2.2,9,3.5,13.5
				c0.7,2.6,1.9,4.8,3.9,6.5c2.3,2,2.2,2.5-0.7,3.7c-1.7,0.7-3.5,0.8-5.2,1.7c-3.6,0.6-7,0.9-10.6-0.5c-2.7-1.1-5.5-1.7-8.2-2.8
				c-2.6-1.1-5.3-2-7.7-3.6c-1.2-0.8-2.7-1.3-4-1.9c-0.6-0.3-1.2-0.2-1.8,0.1c-0.2,0.1-0.5,0.2-0.7,0.2C9.8,47.9,9.3,47.4,9.7,46.3z
				"/>
			<path class="st2" d="M11.1,47.8c0.8-1,1.7-0.8,2.6-0.3c2.3,1.3,4.8,2.3,7,3.7c1.1,0.7,2.4,0.9,3.6,1.4c1.7,0.6,3.3,1.4,5,2.1
				c0.8,0.3,1.7,0.3,2.5,0.5c2.1,0.7,4.1,1.8,6.4,1.7c1.8-0.1,3.6-0.2,5.4-0.7c2.9-0.6,5.7-1.4,8.3-2.9c1.3-0.7,2.3-1.7,3.1-3.1
				c2.9-5,5.5-10.1,8.4-15.1c2.7-4.6,5.1-9.3,7.6-14c0.7-1.3,1.5-2.6,2.1-4c0.1-0.3,0.3-0.6,0.5-0.8c0.4-0.4,0.7-0.9,1.2-1.1
				c1.2,1.6,1,3.1,0,4.9c-2.6,4.6-4.9,9.3-7.4,13.9c-0.9,2.4-2.3,4.5-3.3,6.9c-1.4,3.1-2.9,6.2-4.2,9.4c-0.8,2-1.9,4-2.7,6
				c-0.1,0.4-0.3,0.7-0.4,1.2c-1.5,2.9-2.9,5.8-5,8.3c-0.4,0.2-0.8,0.3-1.2,0.4c-2.2,0-4.1-0.8-6.1-1.6c-3.4-1.3-6.7-2.9-10.3-3.9
				c-2.9-1-5.7-2.4-8.3-4c-4.3-2.6-8.9-4.7-13.2-7.3C12.3,49,11.4,48.7,11.1,47.8z"/>
			<path class="st3" d="M74.3,16.5c-0.1,0.3-0.3,0.5-0.4,0.8c-1,1.4-1.6,3-2.6,4.3c-0.3,0.4-0.4,0.8-0.8,1.1
				c-2.5,1.6-4.6,3.7-7.5,4.7c-3.7,1.2-7.4,1.4-11.1,0.5c-3.1-0.8-6.2-0.9-9.4-0.8c-0.6,0-1.2,0.3-1.7-0.2c-0.2,0-0.5,0-0.5-0.3
				c4.8-0.9,9.6-0.9,14.5-1.1c3.6-0.4,7.2-1.1,10.6-2.2c2.4-0.6,4-2.2,5.2-4.3c0.8-1.5,1.5-3.1,2.9-4.3c0.4-0.3,0.7-0.7,1.2-0.6
				c0.1,0.4,0.3,0.7,0.4,1.1C74.9,15.7,74.7,16.2,74.3,16.5z"/>
			<path class="st4" d="M11.1,47.8c7.8,4.3,15.6,8.7,23.4,13c-2.2-0.3-4.2-1.2-6.1-2.1c-6.3-2.9-12.3-6.4-18.3-9.9
				c-0.2-0.1-0.3-0.3-0.4-0.4c0.3-0.3,0.8-0.2,1.1-0.6C10.9,47.9,11,47.8,11.1,47.8z"/>
			<path class="st5" d="M57.3,56.7c-0.2-1.1,0.5-1.9,0.9-2.8c1.6-3.3,2.7-6.7,4.3-10c1.6-3.3,3.5-6.5,5.2-9.7
				c-0.6,2-1.7,3.7-2.5,5.6c-2,4.8-4,9.7-6.3,14.4c-0.3,0.5-0.6,1-0.9,1.6C57.8,55.9,57.8,56.5,57.3,56.7z"/>
			<path class="st6" d="M70.2,18.4c1-2.1,2.4-3.8,4-5.4c0.3,0.2,0.5,0.6,0.4,1c-1.6,2-2.3,3.1-3.3,5.1c-1.2,2.3-3.6,4-6.1,4.6
				c-0.4,0-0.5-0.3-0.5-0.6c0.1-0.3,0.3-0.5,0.6-0.7C67.5,21.7,68.9,20.2,70.2,18.4z"/>
			<path class="st7" d="M66.8,22.2c0.1,0.2-1.7,1.2-1.6,1.4c-3.5,0.9-6.9,2.3-10.6,1.7c0.3-0.2,0.4-0.5,0.4-0.8
				c0.4,0,0.7-0.1,1.1-0.1c1-0.4,2.1-0.2,3.6-0.7C61.1,23.2,65.4,21.9,66.8,22.2z"/>
			<path class="st8" d="M76.3,14.5c0.7-0.4,1.3-1,2.1-0.5c-0.4,0.7-0.6,1.5-1.4,2.2C76.7,15.6,76.5,15.1,76.3,14.5z"/>
			<path class="st9" d="M10.8,47.9c0.3,1.6-0.6,0.5-1.1,0.6c-1.7-0.7-0.4-1.4,0-2.1C9.7,47.1,10.1,47.6,10.8,47.9z"/>
			<path class="st10" d="M38.5,26.8c-1,1-2.3,0.9-3.4,1c-0.1-0.2-0.1-0.3,0.1-0.3C36.3,27.3,37.4,27.1,38.5,26.8z"/>
			<path class="st11" d="M73.9,25.9c-0.2,1.2-0.7,2.1-1.6,2.9C72.9,27.8,73.4,26.9,73.9,25.9z"/>
			<path class="st12" d="M35.2,27.5c0,0.1-0.1,0.2-0.1,0.3c-0.6,0.3-1.2,0.6-1.9,0.3C33.7,27.8,34.4,27.6,35.2,27.5z"/>
			<path class="st13" d="M57.3,56.7c0.2-0.3,0.3-0.8,0.8-0.9c-0.3,0.6-0.7,1.2-1,1.8C57,57.2,57.2,57,57.3,56.7z"/>
			<path class="st14" d="M74.3,16.5c0.3-0.5,0.5-0.9,0.8-1.4c0,0.1,0.1,0.2,0.1,0.3C74.9,15.8,74.9,16.4,74.3,16.5z"/>
			<path class="st15" d="M50.9,66.3c0.4-0.3,0.8-0.5,1.2-0.4C51.9,66.5,51.4,66.5,50.9,66.3z"/>
			<path class="st14" d="M40.8,26.8c3.2-0.5,6.4-0.5,9.5,0.2c2.3,0.5,4.5,0.8,6.8,0.8c4.1,0,7.5-1.4,10.9-3.9
				c2.3-1.7,4.1-3.7,5.3-6.2c0.1-0.2,0.4-0.3,0.5-0.5c-1.6,3-3.2,6-4.8,8.9c-1.3,2.4-2.8,4.6-3.9,7c-1.6,3.3-3.7,6.4-5.3,9.8
				c-1.1,2.4-2.7,4.7-3.9,7.1c-1.8,3.9-5.6,4.2-8.8,5.5c-1,0.4-2.2,0.8-3.4,0.6c2-1.1,4.2-1.1,6.2-2.1c0.9-0.4,1-0.8,0.4-1.4
				c-0.6-0.6-1.2-1.2-1.9-1.8c-1.5-1.3-2.5-2.9-3-4.9c-1.2-4.8-2.5-9.5-3.8-14.3c-0.3-1.1-0.7-2.1-1.1-3.2
				C40.5,28,40.4,27.4,40.8,26.8z"/>
			<path class="st16" d="M43.7,49.1c-0.4-0.3-0.6-0.7-0.3-1c0.4-0.3,0.4,0.1,0.5,0.4C43.9,48.6,43.8,48.8,43.7,49.1z"/>
			<path class="st17" d="M37.2,51.5c0-0.1-0.1-0.2-0.1-0.3c0.1-0.2,0.2-0.3,0.4-0.2c0.1,0,0.2,0.2,0.2,0.3
				C37.6,51.5,37.4,51.5,37.2,51.5z"/>
			<path class="st18" d="M57.7,26.4c-0.2,0-0.3,0.1-0.4,0.1c-0.1,0-0.2-0.2-0.2-0.3c0-0.2,0.2-0.3,0.4-0.2
				C57.6,26,57.6,26.2,57.7,26.4z"/>
			<g>
				<path class="st19" d="M28,53.2c-0.9,0.2-1.6,0-2.2-0.7c-0.1-1,0.5-1.4,1.3-1.7c0.7-0.3,1.1,0,1.5,0.6
					C28.9,52.1,28.9,52.8,28,53.2"/>
				<path class="st20" d="M16.6,45.7c0.7-0.2,1.4-0.1,1.9,0.5c0.1,1-0.1,1.8-1.3,1.5C16.1,47.4,16.1,46.5,16.6,45.7"/>
				<path class="st21" d="M46,59.4c1.7-0.1,2.1,0.7,1.4,2.2C45.8,61.5,44.9,61.1,46,59.4"/>
				<path class="st22" d="M35.3,56c1-1.8,1.8-1.1,2.5,0.2c-0.1,0.1-0.1,0.3-0.1,0.5C36.5,57.6,35.8,57.2,35.3,56"/>
			</g>
			<path class="st23" d="M78.7,17.8c0.4-0.7,0.8-1.4,1.1-2.1c0.2-1.6,0.1-1.8-1.3-2c-0.6,0.2-2.8-0.9-3-1.2
				c-0.1-0.2-1.5,0.7-1.4,1.1c0.2,0.5,0.6,1.5,0.8,2c0.1,0.1,0.1,0.3,0.2,0.4c0.8,1.4,0.6,2.8-0.3,4.2c-0.5,0.8-1,1.7-1.4,2.6
				c-1.9,3.8-4.1,7.4-5.9,11.3c-0.1,0.6-0.4,1.2-0.7,1.8c-1.7,2.7-2.6,5.8-4,8.7c-1.6,3.6-3,7.4-4.9,10.9c-0.3,0.6-0.6,1.3-1.1,1.9
				c-1.4,2.7-2.9,5.4-4.7,7.9c-0.3,0.5-0.8,0.7-1.4,0.5c-1.8-0.1-3.5-0.7-5.1-1.3c-3.7-1.4-7.8-3.2-11.5-4.6
				c-5.6-2.1-8.8-3.8-12.9-5.8c-3.4-1.7-5.7-2.9-9.1-4.6c-0.6-0.3-1.4-0.5-1.9-1.1c-0.8-0.5-0.9-1.2-0.2-1.9c0.8-0.9,1.3-2,2.1-3
				c5.7-6.9,12.2-12.7,20.9-15c0.7-0.3,1.4-0.5,2.1-0.7c1.1-0.2,2.1-0.6,3.2-0.7c0.7,0,1.3-0.2,2-0.3c2.1-0.4,4.1-0.5,6.2-0.7
				c2.7-0.3,5.4,0,8.1-0.5c0.5-0.3,3.9-0.3,3.6-0.8c-1.5-0.8-6.3-0.6-7.8-0.7c-2.2,0-4.4,0.3-6.6,0.3c-1.9,0.1-3.7,0.3-5.4,1.1
				c-1.5,0.1-3,0.7-4.4,1c-5,0.9-9.5,2.8-13.6,5.9c-1.2,0.7-2.2,2-3.3,2.7c-2.8,2.3-5.4,4.9-7.4,8c-1.1,1.7-2.5,3.2-2.7,5.3
				c0.4,1.6,2,1.7,3,2.6c4.5,2.5,14.4,7.6,18.5,9.3c5.8,2.4,13.7,5.8,16.1,6.5c2,0.6,4.6,2.3,6.8,1.7c0.3-0.2,1.1-0.6,1.4-0.8
				c0.6-0.2,0.7-1,1-1.6c2.2-3.1,7-12.1,7.2-12.3c1.7-4.1,3.8-7.9,5.4-12.1c0.1-0.3,4-8.9,6.2-12.6c0.5-1,1-2,1.6-2.9
				c0.9-1.7,1.8-3.3,2.7-5c0-0.1,0.1-0.2,0.2-0.2C77.1,20.8,78.2,19.4,78.7,17.8z"/>
			<path class="st23" d="M74.2,14.1c0,0,2.9,0.5,6.2,1.4c7.2,2.1,39.7,14,41.2,14c2.2,0,2.8,1.6,4.6,0.8s-1.8-4-4.6-5.3
				c-2.8-1.3-37.3-16-38-16.3c-0.7-0.4-0.3-0.9-2.4-1.8C79,5.9,76,5,75.3,5.8S70.2,13.3,74.2,14.1z"/>
			<path class="st24" d="M79.3,13.6c-1-0.4-0.5-1.2-0.4-1.8c0-0.6,0.3-1.3,1.1-1c0.8,0.3,1,1,0.8,1.8C80.5,13.3,80,13.5,79.3,13.6"
				/>
			<path class="st25" d="M75,7.9c2.1,1.4,2.1,2.9-0.1,4.6C73.3,11,74.8,9.4,75,7.9"/>
			<path class="st14" d="M81.1,10.6c-0.7-0.7-1.3-0.3-0.3-0.8l40.3,16.6l1.6,0.6l1.2,1.7l-2.7-0.9L82,14C82,14,82.4,12.1,81.1,10.6z
				"/>
			<path class="st26" d="M78.2,11.5c-0.5,0.4-0.9,0.9-1.2,0.8c-0.4-0.1-0.6-0.8-0.1-1.9c0.2-0.4,0.7-0.6,1-0.5
				C78.2,10,78.1,10.8,78.2,11.5"/>
			<path class="st27" d="M13.2,41.6c0.3-0.2,0-0.9,1-0.7c0.5,0.3,1,0.6,1.5,0.8c5.4,1.7,10.8,3.9,16.2,6.7c1.9,1.2,4.1,1.8,6,3
				c4.7,2.2,9.3,4.3,14,6.5c1.4,0.6,2.7,1.3,0.7,1.1c-3.7-1.5-7.2-3.2-10.8-5c-3.9-2-8-3.6-11.7-5.7c-1.5-0.9-3-1.6-4.7-2.2
				C21.2,44,17.2,42.9,13.2,41.6z"/>
		</g>
	</g>
	<g>
		<path class="st28" d="M47.4,62.2c-3.8,0-9.6,0.2-14.3,0.4c-3.2,0.2-6.6,0-9.8,0.2c-0.7,0-1.5,0.4-2.2-0.5c7.3-1.6,15-1.1,22.4-1.4
			c0.7-0.1,1.5,0.1,2.2,0.1c1.1,0.1,2.1,0.2,3.2,0.3c0.6,0,3.7,0.2,3.6,0.8C51.7,62.5,48.1,61.9,47.4,62.2z"/>
		<path class="st29" d="M57.5,61.9c1.8,0.1,2.1,0.1,3.9,0.3c0.9,0.1,0.2-0.1,1.2,0.1c2.9,0.2,4.1,0.5,4,1c-1.7,0.2-0.9,0-2.9,0.1
			c-0.7-0.1-2,0-2.2-0.1c-3.3-0.3-16.6-0.8-19.9-1.1c0.2-0.7,12.6-0.1,13.2-0.1C55.8,61.9,56.7,62.2,57.5,61.9z"/>
		<path class="st30" d="M57.5,61.9c-0.3,0.8-1.2,0.4-1.9,0.4c-0.8,0-1.6-0.3-2.3,0.1c-0.6,0-1.1,0-1.7,0c-0.7,0-1.4,0.1-2.1-0.3
			c-0.2-0.9-1.2-0.6-2-0.7c-0.7-0.1-1.5-0.2-2.2-0.3c0-0.1,0.1-0.2,0.3-0.2c1,0.1,2.1,0.1,3.1,0.2C51.8,61.3,54.6,61.6,57.5,61.9z"
			/>
	</g>
</g>
</svg>
