<!-- Generator: Adobe Illustrator 19.0.0, SVG Export Plug-In  -->
<svg version="1.1"
	 xmlns="http://www.w3.org/2000/svg" xmlns:xlink="http://www.w3.org/1999/xlink" xmlns:a="http://ns.adobe.com/AdobeSVGViewerExtensions/3.0/"
	 x="0px" y="0px" width="127.9px" height="61.4px" viewBox="0 0 127.9 61.4" style="enable-background:new 0 0 127.9 61.4;"
	 xml:space="preserve">
<style type="text/css">
	.st0{clip-path:url(#SVGID_2_);}
	.st1{fill:#EFAB1F;}
	.st2{fill:#D48B29;}
	.st3{fill:#EFC81E;}
	.st4{fill:#CF872C;}
	.st5{fill:#C9832A;}
	.st6{fill:#252014;}
	.st7{fill:#1A1610;}
	.st8{fill:#EBBF61;}
	.st9{fill:#E4B04C;}
	.st10{fill:#DFB728;}
	.st11{fill:#9D6E35;}
	.st12{fill:#D4B564;}
	.st13{fill:#DD9F39;}
	.st14{fill:#ECA920;}
	.st15{fill:#E2A338;}
	.st16{fill:#F3B83A;}
	.st17{fill:#F3B633;}
	.st18{fill:#EED56A;}
	.st19{fill:#271F15;}
	.st20{fill:#231D14;}
	.st21{fill:#2F1F11;}
	.st22{fill:#1B1814;}
	.st23{fill:#010101;}
	.st24{fill:#552B33;}
	.st25{fill:#3A1E24;}
	.st26{fill:#371B20;}
	.st27{fill:#272625;}
	.st28{clip-path:url(#SVGID_4_);}
</style>
<defs>
</defs>
<g>
	<defs>
		<path id="SVGID_1_" d="M101.4,30c0,0,6,5.2,23.1,4.5S87.9,0,87.9,0S67.6,7.2,62.5,7.5S21.3,1.9,18.9,2.6S4.5,8.8,2.2,14.4
			s-4.4,10.3,3,19.3s30.1,27.5,34,27.7S65,52.2,65,52.2L101.4,30z"/>
	</defs>
	<clipPath id="SVGID_2_">
		<use xlink:href="#SVGID_1_"  style="overflow:visible;"/>
	</clipPath>
	<g class="st0">
		<path class="st1" d="M9.3,23.2c8-6.4,16.9-10.3,27.1-10.2c0.2,0,0.5,0.1,0.7,0.1c0.6,0.3,1.3,0.1,2,0.2c1.2,0.1,2.4,0.4,3.6,0.2
			c0.6,0.1,1.2,0.2,1.8,0.3c0.2,0.2,0.6,0.3,0.5,0.8c-0.5,1.5-0.1,2.9-0.2,4.4c-0.1,4.6-0.6,9.2-0.8,13.9c-0.1,2.7,0.3,5.1,1.7,7.4
			c1.6,2.6,1.3,3.1-1.8,3.3c-1.8,0.1-3.6-0.3-5.4,0c-3.6-0.5-7-1.3-9.9-3.7c-2.2-1.8-4.7-3.3-6.9-5.2c-2.1-1.9-4.4-3.5-6.2-5.8
			c-0.9-1.2-2.1-2.1-3.3-3.1c-0.5-0.4-1.1-0.6-1.8-0.5c-0.2,0-0.5,0-0.7-0.1C8.9,24.6,8.6,24,9.3,23.2z"/>
		<path class="st2" d="M10.2,25c1.1-0.7,1.9-0.2,2.6,0.5c1.8,1.9,3.8,3.7,5.5,5.7c0.8,1,2,1.6,3,2.4c1.4,1.1,2.7,2.4,4.2,3.5
			c0.7,0.6,1.5,0.8,2.2,1.3c1.8,1.3,3.3,3,5.6,3.6c1.8,0.4,3.5,0.9,5.4,1c2.9,0.3,5.8,0.4,8.8-0.1c1.5-0.3,2.7-0.9,3.9-1.9
			c4.3-3.8,8.4-7.9,12.7-11.8c4-3.5,7.8-7.2,11.6-10.9c1.1-1,2.2-2,3.2-3.1c0.2-0.2,0.5-0.4,0.8-0.6c0.5-0.2,0.9-0.6,1.5-0.6
			c0.6,1.9,0,3.2-1.5,4.6c-3.9,3.5-7.6,7.3-11.3,11c-1.6,2-3.6,3.6-5.3,5.5c-2.3,2.5-4.7,5-6.9,7.6c-1.4,1.7-3,3.2-4.5,4.8
			c-0.2,0.4-0.6,0.6-0.7,1c-2.3,2.3-4.5,4.6-7.3,6.3c-0.4,0.1-0.9,0-1.3,0c-2.1-0.6-3.7-2.1-5.3-3.4c-2.8-2.3-5.5-4.8-8.6-6.8
			c-2.5-1.9-4.6-4.1-6.6-6.4c-3.3-3.8-7-7.2-10.3-11C10.9,26.5,10.2,26,10.2,25z"/>
		<path class="st3" d="M79.9,14.8c-0.2,0.2-0.4,0.4-0.7,0.6c-1.4,1-2.4,2.3-3.8,3.3c-0.4,0.3-0.6,0.6-1.1,0.8
			c-2.8,0.8-5.6,2.1-8.6,2.1c-3.9,0-7.5-0.9-10.7-2.9c-2.7-1.7-5.6-2.8-8.6-3.7c-0.5-0.2-1.2-0.1-1.5-0.7c-0.2-0.1-0.5-0.1-0.4-0.5
			c4.8,0.6,9.5,2.1,14.1,3.4c3.5,0.8,7.1,1.1,10.8,1.2c2.5,0.2,4.5-0.8,6.2-2.5c1.3-1.2,2.4-2.5,4.1-3.2c0.5-0.2,0.9-0.5,1.4-0.2
			c0,0.4,0,0.8,0,1.2C80.8,14.2,80.4,14.6,79.9,14.8z"/>
		<path class="st4" d="M10.2,25c6.1,6.5,12.2,13.1,18.2,19.6c-2-1-3.6-2.4-5.2-3.9c-5.1-4.7-9.7-9.9-14.3-15.1
			c-0.1-0.1-0.2-0.3-0.3-0.5C9,25,9.4,25.3,9.8,25C9.9,25,10.1,25,10.2,25z"/>
		<path class="st5" d="M51.4,47.7c0.2-1.1,1.1-1.7,1.7-2.3c2.5-2.6,4.7-5.6,7.2-8.2c2.6-2.6,5.3-5.1,8-7.7c-1.2,1.7-2.8,3-4.1,4.5
			c-3.4,4-6.8,8-10.4,11.8c-0.4,0.4-0.9,0.8-1.3,1.2C52,47.2,51.9,47.7,51.4,47.7z"/>
		<path class="st6" d="M75.5,15.3c1.6-1.7,3.5-2.9,5.5-3.9c0.3,0.3,0.3,0.7,0.1,1.1c-2.1,1.4-3.1,2.3-4.7,3.8
			c-1.9,1.8-4.6,2.7-7.2,2.5c-0.4-0.1-0.4-0.4-0.3-0.7c0.2-0.3,0.5-0.4,0.8-0.4C71.8,17.6,73.7,16.6,75.5,15.3z"/>
		<path class="st7" d="M71.1,17.9c0.1,0.2-2,0.6-1.9,0.9c-3.6-0.3-7.3,0-10.6-1.6c0.4-0.1,0.5-0.3,0.6-0.6c0.3,0.1,0.7,0.1,1,0.2
			c1.1-0.1,2.1,0.5,3.7,0.4C65.3,17.1,69.8,17.1,71.1,17.9z"/>
		<path class="st8" d="M82.4,13.5c0.7-0.1,1.5-0.5,2.1,0.2c-0.6,0.5-1.1,1.3-2,1.7C82.5,14.7,82.5,14.1,82.4,13.5z"/>
		<path class="st9" d="M9.8,25c-0.2,1.6-0.8,0.3-1.2,0.2c-1.4-1.1,0.1-1.4,0.7-2C9.1,23.9,9.3,24.5,9.8,25z"/>
		<path class="st10" d="M42.7,13.5c-1.2,0.7-2.4,0.1-3.6-0.1c-0.1-0.2,0-0.3,0.2-0.2C40.4,13.3,41.6,13.4,42.7,13.5z"/>
		<path class="st11" d="M76.7,23.6c-0.5,1-1.3,1.8-2.4,2.3C75.1,25.1,75.9,24.3,76.7,23.6z"/>
		<path class="st12" d="M39.3,13.2c-0.1,0.1-0.1,0.2-0.2,0.2c-0.7,0.1-1.4,0.2-1.9-0.3C37.9,13,38.6,13,39.3,13.2z"/>
		<path class="st13" d="M51.4,47.7c0.3-0.2,0.6-0.7,1-0.6c-0.5,0.5-1,1-1.5,1.4C50.9,48.2,51.2,48,51.4,47.7z"/>
		<path class="st14" d="M79.9,14.8c0.4-0.4,0.8-0.7,1.2-1.1c0,0.1,0,0.2,0.1,0.3C80.8,14.3,80.5,14.8,79.9,14.8z"/>
		<path class="st15" d="M42.3,54.9c0.4-0.2,0.9-0.2,1.3,0C43.2,55.3,42.7,55.2,42.3,54.9z"/>
		<path class="st14" d="M44.9,14.2c3.2,0.5,6.3,1.5,8.9,3.2c2,1.2,4,2.2,6.2,2.9c3.9,1.2,7.6,1,11.6-0.4c2.7-0.9,5-2.2,7-4.3
			c0.2-0.2,0.4-0.2,0.7-0.3c-2.4,2.3-4.9,4.7-7.3,7c-1.9,1.9-4.1,3.5-5.9,5.4c-2.6,2.7-5.5,4.9-8.1,7.6c-1.8,1.9-4,3.6-5.9,5.5
			c-2.9,3.2-6.6,2.3-10,2.5c-1.1,0.1-2.3,0.1-3.4-0.5c2.2-0.4,4.4,0.3,6.6,0c1-0.1,1.2-0.4,0.8-1.2c-0.4-0.8-0.8-1.6-1.2-2.3
			c-1-1.7-1.4-3.6-1.3-5.6c0.3-4.9,0.6-9.8,0.8-14.7c0.1-1.1,0-2.2-0.1-3.4C44.3,15.2,44.3,14.6,44.9,14.2z"/>
		<path class="st16" d="M40.8,36.2c-0.3-0.4-0.3-0.9,0-1c0.4-0.2,0.4,0.2,0.3,0.5C41.1,35.9,40.9,36,40.8,36.2z"/>
		<path class="st17" d="M33.8,36.6c0-0.1-0.1-0.3,0-0.3c0.1-0.2,0.3-0.2,0.5-0.1c0.1,0.1,0.1,0.3,0,0.4C34.2,36.7,34,36.7,33.8,36.6
			z"/>
		<path class="st18" d="M61.1,19c-0.2,0-0.3,0-0.4,0c-0.1-0.1-0.2-0.3-0.1-0.3c0.1-0.2,0.3-0.2,0.4-0.1C61.1,18.7,61.1,18.8,61.1,19
			z"/>
		<g>
			<path class="st19" d="M24.6,35.3c-0.9-0.1-1.5-0.5-1.9-1.3c0.2-1,0.9-1.2,1.8-1.3c0.7-0.1,1.1,0.4,1.3,1
				C25.8,34.5,25.6,35.2,24.6,35.3"/>
			<path class="st20" d="M16,24.6c0.8,0,1.3,0.4,1.6,1c-0.2,0.9-0.7,1.7-1.7,1C15,26.1,15.3,25.3,16,24.6"/>
			<path class="st21" d="M39.7,46.8c1.6,0.5,1.8,1.3,0.6,2.5C38.9,48.8,38.2,48.1,39.7,46.8"/>
			<path class="st22" d="M30.6,40.3c1.5-1.4,2-0.5,2.3,1c-0.1,0.1-0.2,0.2-0.3,0.4C31.3,42.2,30.7,41.6,30.6,40.3"/>
		</g>
		<path class="st23" d="M83.7,17.3c0.6-0.6,1.2-1.1,1.7-1.7c0.7-1.4,0.7-1.6-0.6-2.3c-0.6,0-2.4-1.8-2.5-2.1c0-0.2-1.6,0.2-1.6,0.6
			c0,0.5,0.1,1.6,0.1,2.1c0,0.2,0,0.3,0.1,0.5c0.3,1.6-0.3,2.8-1.6,3.9c-0.8,0.6-1.5,1.4-2.2,2.1c-3,3-6.2,5.8-9.1,8.9
			c-0.3,0.6-0.7,1.1-1.2,1.5c-2.4,2.1-4.3,4.7-6.5,7.1c-2.7,2.9-5.2,6.1-8,8.8c-0.5,0.5-1,1-1.6,1.5c-2.2,2.1-4.4,4.2-6.9,6
			c-0.5,0.4-1,0.4-1.5,0.1c-1.7-0.7-3.1-1.8-4.5-2.9c-3.1-2.4-6.4-5.5-9.5-7.9c-4.7-3.7-7.2-6.3-10.4-9.5c-2.7-2.6-4.5-4.5-7.2-7.2
			c-0.5-0.5-1.1-0.9-1.5-1.6c-0.6-0.7-0.5-1.4,0.4-1.9c1-0.6,1.9-1.5,2.9-2.2c7.6-4.8,15.5-8.3,24.5-7.8c0.8,0,1.5,0,2.3,0
			c1.1,0.2,2.2,0.1,3.3,0.4c0.6,0.2,1.3,0.2,2,0.3c2.1,0.3,4.1,0.8,6.1,1.2c2.7,0.6,5.2,1.7,7.9,2.1c0.5-0.1,3.8,0.9,3.7,0.3
			c-1.1-1.2-5.8-2.5-7.2-3.1c-2.1-0.7-4.3-1.1-6.4-1.8c-1.8-0.5-3.6-0.9-5.5-0.6c-1.5-0.3-3-0.2-4.5-0.4c-5.1-0.7-9.9-0.2-14.7,1.4
			c-1.4,0.3-2.7,1.2-4,1.5c-3.4,1.3-6.7,2.9-9.5,5.3c-1.5,1.2-3.3,2.2-4.2,4.2c-0.1,1.6,1.4,2.2,2,3.3c3.5,3.7,11.3,11.6,14.7,14.6
			c4.7,4.1,11.2,9.7,13.3,11.2c1.7,1.2,3.6,3.6,5.9,3.7c0.4-0.1,1.2-0.2,1.5-0.3c0.7,0,1-0.8,1.4-1.2c3.1-2.3,10.4-9.3,10.7-9.5
			c2.9-3.3,6.1-6.4,8.9-9.8c0.2-0.3,6.6-7.2,9.8-10.1c0.8-0.8,1.6-1.5,2.4-2.3c1.4-1.3,2.7-2.6,4.1-3.9c0.1-0.1,0.2-0.1,0.3-0.2
			C81.3,19.8,82.7,18.7,83.7,17.3z"/>
		<path class="st23" d="M80.6,12.4c0,0,2.6,1.3,5.4,3.3c6.2,4.3,33.4,25.6,34.8,26.1c2.1,0.7,2.1,2.4,4.1,2.2c2-0.3-0.5-4.3-2.7-6.4
			c-2.3-2.1-30.5-26.7-31.1-27.3c-0.5-0.6,0-1-1.7-2.5s-4.3-3.4-5.2-2.8C83.4,5.4,77,10.5,80.6,12.4z"/>
		<path class="st24" d="M85.6,13.5c-0.8-0.6-0.1-1.3,0.2-1.9c0.2-0.6,0.7-1.2,1.3-0.6c0.6,0.5,0.6,1.3,0.2,2
			C86.9,13.6,86.3,13.6,85.6,13.5"/>
		<path class="st25" d="M83.3,6.8c1.5,2,1.1,3.4-1.5,4.3C80.7,9.2,82.7,8.2,83.3,6.8"/>
		<path class="st14" d="M88.3,11.3c-0.4-0.8-1.1-0.7-0.1-0.8l33.2,28.2l1.4,1.1l0.6,2l-2.3-1.7L88,14.8C88,14.8,89,13.1,88.3,11.3z"
			/>
		<path class="st26" d="M85.2,11.2c-0.6,0.2-1.2,0.6-1.4,0.4c-0.4-0.2-0.3-1,0.5-1.8c0.3-0.3,0.9-0.4,1.1-0.2
			C85.6,9.8,85.4,10.5,85.2,11.2"/>
		<path class="st27" d="M14,19.8c0.4-0.1,0.2-0.8,1.1-0.4c0.4,0.4,0.7,0.9,1.2,1.2c4.6,3.3,9.1,7.1,13.3,11.4c1.4,1.7,3.3,3,4.8,4.7
			c3.8,3.5,7.5,7,11.3,10.5c1.1,1,2.1,2,0.3,1.2c-3-2.6-5.9-5.3-8.7-8c-3.1-3.1-6.5-5.9-9.4-9.1c-1.1-1.3-2.4-2.4-3.8-3.5
			C20.9,24.4,17.5,22.3,14,19.8z"/>
	</g>
</g>
</svg>
