<!-- Generator: Adobe Illustrator 19.0.0, SVG Export Plug-In  -->
<svg version="1.1"
	 xmlns="http://www.w3.org/2000/svg" xmlns:xlink="http://www.w3.org/1999/xlink" xmlns:a="http://ns.adobe.com/AdobeSVGViewerExtensions/3.0/"
	 x="0px" y="0px" width="28.1px" height="25.1px" viewBox="0 0 28.1 25.1" style="enable-background:new 0 0 28.1 25.1;"
	 xml:space="preserve">
<style type="text/css">
	.st0{fill:#FFFFFF;}
</style>
<defs>
</defs>
<g id="XMLID_15_">
	<g id="XMLID_16_">
		<g id="XMLID_17_">
			<path id="XMLID_18_" class="st0" d="M28,7.1c0-2.3,0.3-4.5-0.2-6.7c0-0.1-0.1-0.2-0.2-0.3c-0.2-0.1-0.3,0-0.4,0l-1.9,0.6
				c0,0,0,0,0,0C22.7,0.9,19.8,2,17.5,1l0,0l0,0c-2.7,2.6-5.4,4.7-8.6,6.5C6.2,9,0.7,12,0.7,12c-1,1.1-0.8,2.3-0.3,3.3
				c1.1,2.4,3,1.7,3,1.7c0,0,11.2-4.3,19.5-5c0,0,0,0,0-0.1l0,0c0.4-2.8,1.4-7,2.5-10c0.1,1.3,0.3,3.3,0.4,4.5
				c0.1,2,0.1,4.1,0.2,6.1c0,3.6,0.3,7.4-0.4,11l1.8,1.5c0.3,0,0.5-0.3,0.4-0.7c0-1.9,0-3.9-0.1-5.8c-0.2-3.1-0.4-6,0-9.1
				C27.8,8.8,28,7.8,28,7.1z M2.7,16.2c-0.4,0.2-1-0.4-1.4-1.3c-0.4-0.9-0.4-1.8,0-2c0.4-0.2,1,0.4,1.4,1.3
				C3.1,15.2,3.1,16.1,2.7,16.2z M4.2,10.8c0.9-0.5,2.2-1.4,3.4-2.1c0.8,0.5,1.5,1.4,2.1,2.6c0.3,0.7,0.5,1.8,0.5,2.5
				c-1.2,0.4-2.5,0.8-3.9,1.4C6.7,13.8,5.3,11.5,4.2,10.8z M18.4,12c-1.1,0.1-2.3,0.3-3.6,0.6c0-0.7-0.1-1.9-0.4-2.8
				c-0.4-1.3-1.9-2.8-2.8-3.2c1.2-0.7,1.9-1.1,3.6-2.2C17.9,5.9,18.6,9.8,18.4,12z M22.7,8.5c-0.1-0.7-0.3-1.5-0.5-2.4
				c-0.5-1.8-1.5-3.1-2.5-3.9c1.7,0,3.4-0.9,5.3-1C24.1,3,23.3,5.5,22.7,8.5z"/>
		</g>
	</g>
</g>
</svg>
