<?xml version="1.0" encoding="UTF-8"?>
<svg width="91px" height="60px" viewBox="0 0 91 60" version="1.1" xmlns="http://www.w3.org/2000/svg" xmlns:xlink="http://www.w3.org/1999/xlink">
    <!-- Generator: Sketch 56.3 (81716) - https://sketch.com -->
    <title>map</title>
    <desc>Created with Sketch.</desc>
    <defs>
        <rect id="path-1" x="0" y="0" width="128" height="113"></rect>
    </defs>
    <g id="Portfolio-DigitaLBi" stroke="none" stroke-width="1" fill="none" fill-rule="evenodd">
        <g id="Nissan-Portfolio-Copy-2" transform="translate(-1016.000000, -3962.000000)">
            <g id="5_goal" transform="translate(0.000000, 3801.000000)">
                <g id="icon" transform="translate(149.926890, 135.160867)">
                    <g id="map" transform="translate(858.073190, 0.839133)">
                        <mask id="mask-2" fill="white">
                            <use xlink:href="#path-1"></use>
                        </mask>
                        <g id="Mask"></g>
                        <g id="Group-3" mask="url(#mask-2)">
                            <g transform="translate(8.000000, 26.000000)">
                                <path d="M65.0532873,2.1977376 C64.9128232,2.82409858 64.7930727,3.10936582 64.7924254,3.39524655 C64.7775375,17.3745684 64.7969565,31.3545038 64.7308719,45.3344392 C64.7238116,46.8031054 65.3510452,47.439282 66.6786575,47.898777 C72.9412849,50.0655811 79.1877297,52.2747152 85.4309381,54.492438 C86.882832,55.0077594 87.7172017,55.0224829 87.7101266,53.1299034 C87.6557082,39.3487349 87.679011,25.5663394 87.6809529,11.7851709 C87.6809529,10.8606596 87.6084553,10.0557766 86.4569086,9.65885635 C79.3385506,7.2043311 72.2357279,4.70686239 65.0532873,2.1977376 M62.9819273,2.07320158 C55.379389,4.74489802 48.1956537,7.304328 40.9789062,9.77664412 C39.42927,10.3073025 39.7108455,11.4042011 39.7063144,12.4434327 C39.6843062,17.1021842 39.6966049,21.7609357 39.6966049,26.4196873 C39.6966049,35.2353653 39.7691025,44.0516568 39.6480574,52.8661079 C39.6163397,55.2059128 40.4636554,55.1985511 42.34212,54.5157501 C48.3665409,52.3268608 54.3961403,50.1410389 60.4995319,48.163186 C62.456967,47.5288498 63.0505411,46.6147677 62.9469731,44.7626778 C62.6103771,38.7689983 62.521697,32.7231731 62.6628084,26.7693697 C62.8537619,18.6812765 62.5650661,10.6072933 62.9819273,2.07320158 M89.851997,57.9407975 C82.8268503,55.5089709 75.9790637,53.4219189 69.3934337,50.7526764 C65.5122229,49.1791055 62.1838064,49.2797159 58.3789771,50.7980738 C52.6205964,53.0961622 46.6473122,54.9077625 40.7924838,56.9948145 C39.4467471,57.4745542 38.2848436,57.550012 36.8912068,57.0475736 C29.4867422,54.3752637 22.0363194,51.8170606 14.6091994,49.2005772 C12.9618209,48.6202271 11.9144895,45.7387212 12.7728093,44.3608497 C13.0388496,43.9338691 13.4110471,43.9228265 13.8227299,43.9657699 C14.5088679,44.0375468 14.6506266,44.548574 14.578129,45.0411968 C14.2596574,47.2037065 15.8804965,47.6110559 17.5103979,48.1705477 C24.1504012,50.4496183 30.765807,52.7918771 37.7663564,55.242108 C37.7663564,50.3710931 37.7663564,45.923378 37.7663564,41.4762764 C37.7663564,31.9501909 37.6867385,22.4228784 37.825908,12.8986334 C37.858273,10.7085171 37.0536791,9.83124365 34.9499541,9.14966966 C29.032985,7.23439152 23.1762147,5.14120477 17.3589297,2.96581198 C15.0771973,2.11185069 14.5509424,2.62839912 14.5723033,4.85593753 C14.6681037,14.7783298 14.6143778,24.701949 14.6124359,34.6249547 C14.6124359,35.3194118 14.6091994,36.0144823 14.5858966,36.7083258 C14.5645357,37.3512507 14.4046526,37.8862035 13.5262665,37.8297635 C12.8323609,37.7843662 12.713905,37.3359138 12.694486,36.8205923 C12.6724778,36.2261322 12.6744197,35.6304451 12.6737724,35.034758 C12.6731251,24.2185284 12.7838134,13.4010718 12.6006275,2.58790957 C12.5507854,-0.364759772 13.4951961,-0.370894551 15.9044466,0.512513688 C22.7114533,3.00814196 29.6045508,5.2933473 36.4134994,7.78468123 C38.0958321,8.39999961 39.5030622,8.36871224 41.1659759,7.76014212 C47.9742771,5.26819471 54.8343624,2.90262376 61.6776178,0.496563261 C62.9450312,0.0511782741 64.0959306,-0.220592455 65.5594758,0.313746834 C72.9542309,3.01304979 80.4143632,5.55407543 87.8609022,8.12577497 C88.9723163,8.50981216 89.890835,8.78158289 89.8856784,10.266813 C89.8319307,26.0338096 89.851997,41.8008063 89.851997,57.9407975" id="Fill-1" stroke="none" fill="#231F20" fill-rule="evenodd"></path>
                                <path d="M65.0532873,2.1977376 C64.9128232,2.82409858 64.7930727,3.10936582 64.7924254,3.39524655 C64.7775375,17.3745684 64.7969565,31.3545038 64.7308719,45.3344392 C64.7238116,46.8031054 65.3510452,47.439282 66.6786575,47.898777 C72.9412849,50.0655811 79.1877297,52.2747152 85.4309381,54.492438 C86.882832,55.0077594 87.7172017,55.0224829 87.7101266,53.1299034 C87.6557082,39.3487349 87.679011,25.5663394 87.6809529,11.7851709 C87.6809529,10.8606596 87.6084553,10.0557766 86.4569086,9.65885635 C79.3385506,7.2043311 72.2357279,4.70686239 65.0532873,2.1977376 Z M62.9819273,2.07320158 C55.379389,4.74489802 48.1956537,7.304328 40.9789062,9.77664412 C39.42927,10.3073025 39.7108455,11.4042011 39.7063144,12.4434327 C39.6843062,17.1021842 39.6966049,21.7609357 39.6966049,26.4196873 C39.6966049,35.2353653 39.7691025,44.0516568 39.6480574,52.8661079 C39.6163397,55.2059128 40.4636554,55.1985511 42.34212,54.5157501 C48.3665409,52.3268608 54.3961403,50.1410389 60.4995319,48.163186 C62.456967,47.5288498 63.0505411,46.6147677 62.9469731,44.7626778 C62.6103771,38.7689983 62.521697,32.7231731 62.6628084,26.7693697 C62.8537619,18.6812765 62.5650661,10.6072933 62.9819273,2.07320158 Z M89.851997,57.9407975 C82.8268503,55.5089709 75.9790637,53.4219189 69.3934337,50.7526764 C65.5122229,49.1791055 62.1838064,49.2797159 58.3789771,50.7980738 C52.6205964,53.0961622 46.6473122,54.9077625 40.7924838,56.9948145 C39.4467471,57.4745542 38.2848436,57.550012 36.8912068,57.0475736 C29.4867422,54.3752637 22.0363194,51.8170606 14.6091994,49.2005772 C12.9618209,48.6202271 11.9144895,45.7387212 12.7728093,44.3608497 C13.0388496,43.9338691 13.4110471,43.9228265 13.8227299,43.9657699 C14.5088679,44.0375468 14.6506266,44.548574 14.578129,45.0411968 C14.2596574,47.2037065 15.8804965,47.6110559 17.5103979,48.1705477 C24.1504012,50.4496183 30.765807,52.7918771 37.7663564,55.242108 C37.7663564,50.3710931 37.7663564,45.923378 37.7663564,41.4762764 C37.7663564,31.9501909 37.6867385,22.4228784 37.825908,12.8986334 C37.858273,10.7085171 37.0536791,9.83124365 34.9499541,9.14966966 C29.032985,7.23439152 23.1762147,5.14120477 17.3589297,2.96581198 C15.0771973,2.11185069 14.5509424,2.62839912 14.5723033,4.85593753 C14.6681037,14.7783298 14.6143778,24.701949 14.6124359,34.6249547 C14.6124359,35.3194118 14.6091994,36.0144823 14.5858966,36.7083258 C14.5645357,37.3512507 14.4046526,37.8862035 13.5262665,37.8297635 C12.8323609,37.7843662 12.713905,37.3359138 12.694486,36.8205923 C12.6724778,36.2261322 12.6744197,35.6304451 12.6737724,35.034758 C12.6731251,24.2185284 12.7838134,13.4010718 12.6006275,2.58790957 C12.5507854,-0.364759772 13.4951961,-0.370894551 15.9044466,0.512513688 C22.7114533,3.00814196 29.6045508,5.2933473 36.4134994,7.78468123 C38.0958321,8.39999961 39.5030622,8.36871224 41.1659759,7.76014212 C47.9742771,5.26819471 54.8343624,2.90262376 61.6776178,0.496563261 C62.9450312,0.0511782741 64.0959306,-0.220592455 65.5594758,0.313746834 C72.9542309,3.01304979 80.4143632,5.55407543 87.8609022,8.12577497 C88.9723163,8.50981216 89.890835,8.78158289 89.8856784,10.266813 C89.8319307,26.0338096 89.851997,41.8008063 89.851997,57.9407975 Z" id="Stroke-3" stroke="#231F20" stroke-width="0.6561" fill="none"></path>
                                <path d="M0,38.0144379 C0,38.0144379 0.0394435642,38.0854621 0.140682046,38.1415339 C0.240605742,38.1994747 0.390491286,38.244332 0.543663793,38.2723679 C0.851323594,38.3296857 1.16818689,38.3371619 1.16818689,38.3371619 C1.24970359,38.339031 1.31412808,38.403202 1.3121559,38.4804564 C1.31018372,38.5577108 1.24247227,38.6187667 1.16095557,38.6168976 C1.1497799,38.6168976 1.13860422,38.6150285 1.12874333,38.6125365 L1.12085462,38.6106674 C1.12085462,38.6106674 0.802019139,38.53279 0.498961087,38.404448 C0.347760758,38.3409 0.20181957,38.2592845 0.112414158,38.1757999 C0.0197217821,38.0923153 0,38.0144379 0,38.0144379" id="Fill-5" stroke="none" fill="#231F20" fill-rule="evenodd"></path>
                                <path d="M6.73631223,38.0042709 C6.73631223,38.0042709 6.77956431,38.0048462 6.85420904,38.0054216 C6.9351323,38.0094488 7.05093627,38.0140514 7.18976151,38.02038 C7.44718119,38.0324618 7.7897098,38.0491462 8.13223842,38.0658306 C8.81729565,38.0986241 9.50235288,38.1314176 9.50235288,38.1314176 C10.0848608,38.1590331 10.5299387,38.5715406 10.4957556,39.0519364 C10.4622701,39.5329074 9.96208069,39.899389 9.37957276,39.8717734 C9.31748509,39.8683214 9.25749026,39.8614176 9.19889066,39.8499111 L9.18284553,39.8464591 C9.18284553,39.8464591 8.51592627,39.7141345 7.84970463,39.58181 C7.516245,39.5150724 7.18278537,39.4489101 6.93303946,39.3994322 C6.8179331,39.3758439 6.72235994,39.3562829 6.65538897,39.3424751 C6.58213947,39.3292426 6.54028261,39.3211881 6.54028261,39.3211881 C6.10427368,39.242944 5.82871604,38.8873936 5.92359158,38.527816 C6.0073053,38.2131136 6.34843868,37.999093 6.72445278,38.0042709 L6.73631223,38.0042709 Z" id="Fill-7" stroke="none" fill="#231F20" fill-rule="evenodd"></path>
                                <path d="M15.5436459,39.3131477 C15.5436459,39.3131477 15.682124,39.3496715 15.8901788,39.4044573 C16.0914785,39.4538719 16.3623551,39.5108061 16.6366091,39.5527011 C17.1851172,39.6407881 17.7424068,39.6515304 17.7424068,39.6515304 C18.4685721,39.6649583 19.0434248,40.1440651 19.0265372,40.7214641 C19.0096497,41.2988631 18.4071014,41.7559483 17.6809361,41.7419833 L17.6802606,41.7419833 L17.6586445,41.7419833 C17.6586445,41.7419833 16.8892471,41.7269441 16.1374127,41.6060931 C15.7618333,41.5486218 15.3923333,41.4712772 15.1201058,41.4041377 C14.8566598,41.3348499 14.6810291,41.2886579 14.6810291,41.2886579 C13.991341,41.1076501 13.6171126,40.5162861 13.8447569,39.9678913 C14.0730768,39.4194965 14.8168051,39.1219346 15.5058178,39.3034796 L15.5071688,39.3034796 L15.5436459,39.3131477 Z" id="Fill-9" stroke="none" fill="#231F20" fill-rule="evenodd"></path>
                                <path d="M22.2431534,38.0171086 C22.2431534,38.0171086 22.3664215,37.9307968 22.5513236,37.8016743 C22.7309802,37.6725519 22.9676811,37.4923329 23.1984809,37.3017564 C23.6620475,36.9233655 24.0967641,36.49664 24.0967641,36.49664 C24.6127852,35.9898172 25.4199287,36.0195084 25.9011987,36.5629275 C26.381813,37.105656 26.3536187,37.9563451 25.8382533,38.4624774 L25.8277624,38.4728348 C25.8277624,38.4728348 25.3228879,38.9693002 24.77146,39.420193 C24.4967296,39.6466752 24.2128197,39.8627999 23.9944778,40.0195421 C23.778103,40.1707604 23.6338532,40.2715726 23.6338532,40.2715726 C23.0470185,40.6824167 22.2543,40.5139361 21.8648254,39.8959436 C21.4746951,39.2772607 21.6340256,38.4431436 22.2215159,38.0322994 L22.2221716,38.0322994 L22.2431534,38.0171086 Z" id="Fill-11" stroke="none" fill="#231F20" fill-rule="evenodd"></path>
                                <path d="M27.7129579,32.8971897 C27.7129579,32.8971897 27.7805813,32.7599173 27.8817323,32.5536705 C27.9783372,32.3453951 28.1079014,32.0674691 28.2374656,31.7902193 C28.4863653,31.2181381 28.7346967,30.6460569 28.7346967,30.6460569 L28.7477668,30.6169795 C29.0284893,29.9711904 29.6956314,29.7182845 30.2383236,30.0523366 C30.7810159,30.3863888 30.9935466,31.180946 30.7128242,31.8267351 L30.7128242,31.8267351 C30.7128242,31.8267351 30.4497179,32.4312749 30.1866116,33.0358146 C30.0462503,33.336732 29.9058891,33.6383257 29.800192,33.864859 C29.6910853,34.0873351 29.6183475,34.2361032 29.6183475,34.2361032 C29.3103483,34.8636344 28.6324092,35.0759672 28.1050601,34.7094565 C27.5771427,34.3429458 27.3992761,33.5368928 27.7072752,32.9086855 L27.7072752,32.9086855 L27.7129579,32.8971897 Z" id="Fill-13" stroke="none" fill="#231F20" fill-rule="evenodd"></path>
                                <path d="M31.0522321,26.214414 C31.0522321,26.214414 31.1528181,26.0799958 31.3033244,25.8786752 C31.4575562,25.6748996 31.6713944,25.4054492 31.8978991,25.1390678 C32.3464378,24.6050774 32.8709748,24.0980934 32.8709748,24.0980934 L32.8754453,24.0937969 C33.3955119,23.5923369 34.3112164,23.5321863 34.9206927,23.9606062 C35.5294239,24.3890261 35.6024418,25.1433643 35.0823753,25.645438 L35.0808851,25.6466656 C35.0808851,25.6466656 34.6561889,26.0554445 34.2732173,26.5108708 C34.0809864,26.7373564 33.8954612,26.9712074 33.7591114,27.1504318 C33.6235067,27.332725 33.5318617,27.4542539 33.5318617,27.4542539 L33.5229207,27.4671433 C33.1034401,28.0287539 32.210088,28.2042956 31.5275938,27.8587363 C30.8450996,27.5125632 30.6320064,26.7766384 31.0522321,26.214414 Z" id="Fill-15" stroke="none" fill="#231F20" fill-rule="evenodd"></path>
                                <path d="M42.9532511,18.7112218 C42.9532511,18.7112218 43.1352787,18.741892 43.4083202,18.7878973 C43.6847832,18.8388098 44.0502071,18.9173255 44.4108409,19.01363 C44.5942371,19.0633157 44.7591569,19.109321 44.9541865,19.1718882 C45.1375828,19.2320018 45.3025026,19.2933422 45.4407341,19.3485486 C45.7171972,19.4595747 45.8889601,19.5429976 45.8889601,19.5429976 L45.9238601,19.5595595 C46.5712216,19.8723956 46.8127846,20.5968258 46.4637842,21.177106 C46.1140995,21.7579996 45.3086614,21.975758 44.6606156,21.6623086 C44.6606156,21.6623086 44.537439,21.6028084 44.3547271,21.5298133 C44.2637133,21.493009 44.1576445,21.4537512 44.0454169,21.4175603 C43.9448227,21.3844365 43.7901677,21.3402714 43.6526204,21.3034672 C43.3706829,21.2280185 43.0839551,21.1666781 42.8677118,21.1268068 C42.6466782,21.0893892 42.4995506,21.064853 42.4995506,21.064853 L42.4619133,21.058719 C41.7392772,20.937265 41.2623101,20.3134331 41.3978043,19.665065 C41.5332986,19.016697 42.2292464,18.5897678 42.9525668,18.7112218 L42.9532511,18.7112218 Z" id="Fill-19" stroke="none" fill="#231F20" fill-rule="evenodd"></path>
                                <path d="M50.8112685,22.6319505 C50.8112685,22.6319505 50.9444204,22.7028839 51.1441484,22.809284 C51.3395811,22.9108477 51.600158,23.0392802 51.8593032,23.1499792 C52.380457,23.3805128 52.8794189,23.5030341 52.8794189,23.5030341 C53.6110387,23.6825171 54.0104945,24.2736288 53.7713937,24.8228253 C53.5330088,25.369335 52.7519939,25.6686524 52.0232375,25.4940058 L52.0003297,25.488632 C52.0003297,25.488632 51.7898637,25.4381189 51.4942091,25.3456905 C51.1971228,25.2543369 50.8227224,25.1162317 50.4740934,24.9657669 C50.1240327,24.8158395 49.7983115,24.6546272 49.5613583,24.5315685 C49.3322797,24.4095845 49.1790834,24.3279036 49.1790834,24.3279036 C48.5512648,23.9936568 48.4037955,23.3407471 48.849067,22.8694699 C49.2943386,22.3981927 50.1641214,22.2874936 50.79194,22.6217403 L50.7926559,22.6217403 L50.8112685,22.6319505 Z" id="Fill-21" stroke="none" fill="#231F20" fill-rule="evenodd"></path>
                                <path d="M57.2929957,22.8706622 C57.2929957,22.8706622 57.4424808,22.8179203 57.6677711,22.7393569 C57.8888107,22.6596948 58.1842385,22.5487172 58.4789579,22.4322456 C59.0691052,22.1993025 59.6599609,21.942186 59.6599609,21.942186 C60.3244965,21.653754 61.1654387,21.8372517 61.5373802,22.3525834 C61.9100303,22.8673658 61.6734046,23.5194967 61.008869,23.808478 L60.9989505,23.8123238 C60.9989505,23.8123238 60.3797564,24.0820763 59.7322239,24.3375446 C59.4091661,24.4655535 59.0804406,24.5897165 58.8289372,24.6792678 C58.5795593,24.7671709 58.4130711,24.8254066 58.4130711,24.8254066 C57.7194887,25.0687883 56.9019257,24.8303512 56.5880779,24.2919449 C56.2742301,23.754088 56.5817017,23.1200871 57.2759927,22.8767055 L57.2759927,22.8767055 L57.2929957,22.8706622 Z" id="Fill-23" stroke="none" fill="#231F20" fill-rule="evenodd"></path>
                                <path d="M67.6605113,19.5418254 C67.6605113,19.5418254 67.8258945,19.4681656 68.0729401,19.357062 C68.3309655,19.2465722 68.6878091,19.1060047 69.0748471,18.9893766 C69.4591402,18.8715209 69.8750003,18.7825153 70.2023356,18.7413885 C70.5282985,18.6978064 70.7568157,18.692282 70.7568157,18.692282 L70.79799,18.6910543 C71.5350092,18.6726393 72.1498782,19.192555 72.1704653,19.8518105 C72.1910525,20.5116799 71.6146128,21.0610595 70.8769073,21.0794745 C70.8769073,21.0794745 70.4390876,21.0917511 69.9312718,21.2531889 C69.6801088,21.3286903 69.4200247,21.4299725 69.2237607,21.5146813 C69.0206343,21.6055285 68.8847593,21.6662978 68.8847593,21.6662978 L68.8566235,21.6785745 C68.1971491,21.9744415 67.3949373,21.7362747 67.0641707,21.1457683 C66.7334041,20.5558758 67.0003506,19.8376924 67.659825,19.5424392 L67.6605113,19.5418254 Z" id="Fill-25" stroke="none" fill="#231F20" fill-rule="evenodd"></path>
                                <path d="M76.312069,21.8352153 C76.312069,21.8352153 76.3913702,21.9903651 76.5094277,22.2224324 C76.626889,22.4617313 76.772374,22.7858366 76.9017602,23.116516 C77.1623214,23.777875 77.3584877,24.4629008 77.3584877,24.4629008 L77.3650464,24.4865677 C77.5600202,25.1663343 77.2177727,25.8921198 76.600654,26.1064369 C75.9841315,26.3214115 75.3258715,25.9440556 75.131494,25.264289 C75.1261278,25.2465388 75.1201653,25.2241868 75.1159915,25.2064366 C75.1159915,25.2064366 74.9830278,24.6522362 74.771359,24.1335362 C74.6694003,23.8732001 74.5555165,23.6194381 74.4648865,23.4347046 C74.368294,23.2460267 74.3038991,23.1204605 74.3038991,23.1204605 L74.2889928,23.0908769 C73.9741728,22.4748795 74.1721278,21.6945286 74.730814,21.3474138 C75.2895003,21.0009564 75.997249,21.2185605 76.3114727,21.8345579 L76.312069,21.8352153 Z" id="Fill-27" stroke="none" fill="#231F20" fill-rule="evenodd"></path>
                                <path d="M77.3272994,30.2663942 C77.3272994,30.2663942 77.3246342,30.4290843 77.31997,30.6731195 C77.3179711,30.9144204 77.3193037,31.2363828 77.330631,31.556978 C77.3512866,32.1981685 77.4159186,32.8338904 77.4159186,32.8338904 L77.4159186,32.8386754 C77.4565635,33.2392486 77.173382,33.5974403 76.7829247,33.6391381 C76.4404417,33.6753675 76.1292752,33.4559409 76.0313277,33.1305606 C76.0313277,33.1305606 75.8254381,32.454508 75.6935089,31.7647839 C75.6235464,31.4209472 75.5655775,31.0757433 75.5249326,30.8166696 C75.4876193,30.5596465 75.4622995,30.38807 75.4622995,30.38807 C75.3843413,29.8624031 75.736819,29.3722821 76.2492109,29.2929877 C76.7616028,29.2130098 77.2393466,29.5746194 77.3166385,30.1002862 C77.3246342,30.1529212 77.3279657,30.2048727 77.3272994,30.2561406 L77.3272994,30.2663942 Z" id="Fill-29" stroke="none" fill="#231F20" fill-rule="evenodd"></path>
                                <path d="M80.1930469,37.4110301 L80.7003,38.004179 L80.075167,37.5228565 C80.0394333,37.4950954 80.0336831,37.4450472 80.062845,37.4106391 C80.092007,37.376622 80.1445806,37.371148 80.1803142,37.3989091 C80.1848322,37.4024281 80.1893503,37.4071201 80.1930469,37.4110301" id="Fill-31" stroke="none" fill="#231F20" fill-rule="evenodd"></path>
                                <path d="M78.456332,36.135121 C78.7466012,36.3727041 79.1027516,36.5864064 79.3506219,36.880936 C80.3068794,38.0155789 81.1750777,37.9145449 82.1117665,36.8411347 C82.4574803,36.4437341 82.8775552,35.7738477 83.5820287,36.4774121 C84.19192,37.0854534 83.7842386,37.5814387 83.2806706,37.9574078 C82.1632974,38.791398 81.9056428,39.5647677 83.1886976,40.4912193 C83.7457535,40.8935185 84.4287014,41.4789036 83.5839855,42.1561379 C82.9121266,42.6949861 82.420952,42.072249 82.0550172,41.6417827 C81.0941937,40.5138754 80.2436072,40.5549013 79.3186597,41.6821963 C78.9585955,42.1212352 78.4889465,42.6900875 77.7844731,42.1236845 C77.0936977,41.5683034 77.5052929,41.0484373 78.0219067,40.6853271 C79.5580502,39.6064059 79.1562394,38.7191433 77.8992762,37.6996179 C77.1067435,37.0560617 77.5711742,36.4933326 78.456332,36.135121" id="Fill-33" stroke="none" fill="#231F20" fill-rule="evenodd"></path>
                            </g>
                        </g>
                    </g>
                </g>
            </g>
        </g>
    </g>
</svg>