<?xml version="1.0" encoding="UTF-8"?>
<svg width="87px" height="117px" viewBox="0 0 87 117" version="1.1" xmlns="http://www.w3.org/2000/svg" xmlns:xlink="http://www.w3.org/1999/xlink">
    <!-- Generator: Sketch 56.3 (81716) - https://sketch.com -->
    <title>mobile</title>
    <desc>Created with Sketch.</desc>
    <g id="Portfolio-DigitaLBi" stroke="none" stroke-width="1" fill="none" fill-rule="evenodd">
        <g id="Nissan-Portfolio-Copy-2" transform="translate(-272.000000, -3939.000000)">
            <g id="5_goal" transform="translate(0.000000, 3801.000000)">
                <g id="icon" transform="translate(149.926890, 135.160867)">
                    <g id="map" transform="translate(120.073190, 0.839133)">
                        <g id="mobile" transform="translate(45.499920, 60.500000) rotate(-15.000000) translate(-45.499920, -60.500000) translate(12.999920, 8.000000)">
                            <rect id="Rectangle" stroke="#231F20" stroke-width="4" x="2" y="2" width="61" height="101" rx="7"></rect>
                            <rect id="Rectangle" stroke="#231F20" stroke-width="4" x="9" y="14" width="47" height="75" rx="5"></rect>
                            <g id="android" transform="translate(41.274102, 56.317505) rotate(34.000000) translate(-41.274102, -56.317505) translate(31.274102, 45.317505)" fill="#231F20">
                                <path d="M16.4319138,6.99737827 C16.7605738,7.04531293 16.8668641,7.23589989 16.8471776,7.56092067 C16.6981278,10.0209406 16.5753864,12.482087 16.405973,14.9405206 C16.3582821,15.6348962 15.9685237,16.1025658 15.1997577,16.0494936 C14.5073577,16.0019445 14.321923,16.36539 14.3158664,16.978619 C14.310695,17.5113611 14.258393,18.0473547 14.1861787,18.5770751 C14.0758631,19.3863584 13.4938461,19.4075856 12.8604586,19.3571425 C12.2173138,19.3059039 12.0817601,18.8889438 12.1047607,18.3556735 C12.130198,17.7674572 12.1666732,17.1787517 12.2218095,16.592494 C12.2669888,16.1144541 12.0629737,15.9423131 11.598074,15.8938834 C9.79955634,15.7066268 9.8009028,15.6938442 9.68095639,17.5183597 C9.66700187,17.7317803 9.64243379,17.9456877 9.64418376,18.1590181 C9.64946812,18.8671419 9.32036825,19.192662 8.60376023,19.1478068 C7.80569037,19.0978837 7.5761302,18.8654217 7.60963579,18.0540245 C7.63422414,17.4658131 7.65329958,16.8767817 7.70716248,16.2905313 C7.74610709,15.8636267 7.55909661,15.686704 7.16342573,15.704306 C6.2026961,15.7464445 5.61847095,15.1153138 5.75492532,14.040163 C6.03850093,11.8059116 6.07557123,9.55604272 6.23440619,7.31441696 C6.27598211,6.72440467 6.53063375,6.5032144 7.09157511,6.53065284 C10.0991059,6.67732603 13.1071025,6.81675744 16.1146528,6.96002388 C16.2207325,6.96495049 16.3263024,6.98478405 16.4319138,6.99737827" id="Fill-9" transform="translate(11.292343, 12.950823) rotate(-37.000000) translate(-11.292343, -12.950823) "></path>
                                <path d="M1.01908838,6.5658138 C1.25854749,5.73620075 1.93859171,5.12463715 2.71684679,4.63216759 C3.29319083,4.26732881 3.41461468,3.89019845 3.01582132,3.34103966 C2.88527427,3.16166356 2.64043895,2.92843762 2.95139557,2.73247377 C3.21549258,2.56658707 3.43525151,2.80591862 3.52235157,3.01237146 C3.90047307,3.91040313 4.55022346,3.91987258 5.39701336,3.76298874 C6.14862998,3.62368462 6.94944184,3.71361997 7.68609973,3.96318387 C8.23213011,4.1486906 8.60738585,4.0643506 8.8731741,3.52883438 C8.94273617,3.38833708 9.06227312,3.26671511 9.17792668,3.15618701 C9.31150689,3.02809695 9.46731426,2.87262619 9.66119386,3.03588291 C9.81030406,3.16064626 9.77433688,3.36397337 9.6659257,3.46977577 C8.74743467,4.36333016 9.47924152,4.79304771 10.1082769,5.30724379 C10.6532448,5.75251248 10.9786631,6.36681868 11.1576456,7.05648593 C11.4076336,8.02083114 11.3135025,8.15295294 10.3426711,8.10615105 C8.4544691,8.01564689 6.56719151,7.91193672 4.67898215,7.82271009 C3.66868714,7.77443151 2.65653348,7.75426833 1.64624822,7.70428637 C0.767924056,7.66078571 0.680907201,7.51394848 1.01908838,6.5658138" id="Fill-11" transform="translate(6.055651, 5.395602) rotate(-37.000000) translate(-6.055651, -5.395602) "></path>
                                <path d="M16.2126177,9.41359781 C16.0077598,10.0560731 15.6361023,10.1791429 15.1642872,10.1524701 C14.6704106,10.1242207 14.2026102,9.98936429 14.2241665,9.41181601 C14.28625,7.76009357 14.3848359,6.10816152 14.5228708,4.46026122 C14.5629885,3.97671461 14.9782957,3.86531737 15.4330696,3.90315956 C15.8933565,3.94182175 16.4617718,3.92407937 16.4493802,4.5318089 C16.4151735,6.20721769 16.2926871,7.88228177 16.2126177,9.41359781" id="Fill-13" transform="translate(15.336514, 7.026085) rotate(-37.000000) translate(-15.336514, -7.026085) "></path>
                                <path d="M4.72775588,11.6056569 C5.16975535,11.7249058 5.28667694,12.0602137 5.26652981,12.4657189 C5.19177802,13.9578281 5.11108887,15.4491197 5.02700416,16.9404309 C4.9873558,17.6385927 4.54990225,17.8374121 3.93344629,17.7949626 C3.31274587,17.7525375 2.94792411,17.4970058 2.99906661,16.7928164 C3.10178338,15.3831575 3.16249712,13.9707589 3.25672986,12.5602971 C3.31986064,11.6154452 3.80418567,11.3103251 4.72775588,11.6056569" id="Fill-15" transform="translate(4.131497, 14.648845) rotate(-37.000000) translate(-4.131497, -14.648845) "></path>
                            </g>
                            <g id="apple" transform="translate(21.076342, 56.462999) rotate(52.000000) translate(-21.076342, -56.462999) translate(10.076342, 45.462999)" fill="#231F20">
                                <path d="M8.57979663,6.28587177 C9.84845103,6.66165542 10.7356926,6.05233821 11.559171,5.25436847 C12.6396462,4.2072709 14.9024622,4.16200951 16.028427,4.7758909 C16.4771022,5.0208349 16.6921086,5.26920203 16.3071966,5.77886812 C14.6952318,7.91528186 15.8414142,10.6613932 18.5004174,11.2558768 C18.7710222,11.3163521 18.998859,11.4186657 18.942483,11.7221832 C18.6263886,13.4181542 18.2414766,15.0886419 16.872123,16.3339006 C16.3208046,16.8351991 15.6905598,16.9744064 14.972835,16.7423942 C13.5922062,16.2966266 12.3799278,16.5240746 11.3915982,17.6156728 C10.5311838,18.566162 9.44487663,18.6228339 8.38889583,18.1413135 C5.37258543,16.7655954 3.61171023,14.4093406 3.02151183,11.2113761 C2.99740623,11.0805365 2.99818383,10.9451326 3.00207183,10.9926761 C2.94025263,7.83693021 5.89785423,5.49132516 8.57979663,6.28587177 Z" id="Fill-17" transform="translate(10.975561, 11.407346) rotate(-37.000000) translate(-10.975561, -11.407346) "></path>
                                <path d="M6.95258447,4.57061334 C6.96502607,5.84782134 5.95414607,7.3691402 4.93004687,7.75030306 C4.47631727,7.91901449 4.21193327,7.8094562 4.12717487,7.25333334 C3.88067567,5.64036877 4.55174447,4.40606763 5.58050927,3.37755277 C6.21891887,2.73936534 6.61316207,2.92348992 6.83633327,3.82953277 C6.90553967,4.10988534 6.92731247,4.4035682 6.95258447,4.57061334" id="Fill-20" transform="translate(5.514380, 5.411439) rotate(-37.000000) translate(-5.514380, -5.411439) "></path>
                            </g>
                            <rect id="Rectangle" fill="#231F20" x="24" y="5" width="17" height="4" rx="2"></rect>
                            <circle id="Oval" fill="#231F20" cx="48" cy="7" r="2"></circle>
                            <circle id="Oval-Copy-7" fill="#231F20" cx="33" cy="96" r="4"></circle>
                        </g>
                    </g>
                </g>
            </g>
        </g>
    </g>
</svg>